PathFileType	4	(X/Y/Z)	s05c0401.trc
DataRate	CameraRate	NumFrames	NumMarkers	Units	OrigDataRate	OrigDataStartFrame	OrigNumFrames
200	200	5	50	mm	200	500	2000
Frame#	Time	racr			lacr			c7			jug			rlel			rdr			llel			ldr			s2			lic			ric			lasi			rasi			rpsi			lpsi			rgt			lgt			rth1			rth2			rth3			rth4			rlfc			rmfc			rsh1			rsh2			rsh3			rsh4			rlmal			rmmal			rcal			rtoe			rmt5			lth1			lth2			lth4			lth3			llfc			lmfc			lsh1			lsh2			lsh3			lsh4			llmal			lmmal			lcal			ltoe			lmt5			SBIKE			LBIKE			RBIKE			
		X1	Y1	Z1	X2	Y2	Z2	X3	Y3	Z3	X4	Y4	Z4	X5	Y5	Z5	X6	Y6	Z6	X7	Y7	Z7	X8	Y8	Z8	X9	Y9	Z9	X10	Y10	Z10	X11	Y11	Z11	X12	Y12	Z12	X13	Y13	Z13	X14	Y14	Z14	X15	Y15	Z15	X16	Y16	Z16	X17	Y17	Z17	X18	Y18	Z18	X19	Y19	Z19	X20	Y20	Z20	X21	Y21	Z21	X22	Y22	Z22	X23	Y23	Z23	X24	Y24	Z24	X25	Y25	Z25	X26	Y26	Z26	X27	Y27	Z27	X28	Y28	Z28	X29	Y29	Z29	X30	Y30	Z30	X31	Y31	Z31	X32	Y32	Z32	X33	Y33	Z33	X34	Y34	Z34	X35	Y35	Z35	X36	Y36	Z36	X37	Y37	Z37	X38	Y38	Z38	X39	Y39	Z39	X40	Y40	Z40	X41	Y41	Z41	X42	Y42	Z42	X43	Y43	Z43	X44	Y44	Z44	X45	Y45	Z45	X46	Y46	Z46	X47	Y47	Z47	X48	Y48	Z48	X49	Y49	Z49	X50	Y50	Z50	
500	2.5000	633.064764	1431.665336	-107.293612	612.843903	1458.821232	-404.060594	563.076476	1539.084508	-255.163183	578.102818	1365.825158	-260.743830	552.921229	1160.424813	29.570309	682.639461	970.812910	-58.386834	539.122330	1197.399126	-566.023124	674.772387	972.850343	-507.485187	43.812557	1217.361200	-279.508747	206.693017	1236.684944	-406.406198	199.354664	1203.550539	-138.156956	238.304772	1177.014200	-378.540109	232.796518	1143.843427	-172.464693	88.650346	1248.400751	-231.965124	88.701820	1266.358709	-317.285754	121.848292	1072.591459	-133.115746	123.039262	1146.683180	-461.989014	170.621709	966.162233	-114.578615	216.049644	889.526522	-117.492392	215.737715	801.424967	-124.241889	250.101862	899.966309	-129.075846	269.521360	660.539836	-149.997472	240.386997	653.087901	-252.883761	224.242556	563.699582	-109.455615	228.744237	475.676244	-117.214422	192.716604	397.745023	-112.910025	254.240481	471.857521	-146.647491	172.332918	260.860311	-114.740724	178.539164	274.729145	-199.392809	97.253912	227.257980	-152.320767	392.521496	197.742862	-162.642816	294.288601	178.125151	-91.570832	216.482624	1047.926179	-483.666282	297.278040	1018.031643	-482.416824	317.575234	1042.488279	-461.360398	353.610798	947.249422	-489.583194	444.397003	828.404242	-460.982799	425.801998	818.329012	-350.781319	327.719946	774.537704	-474.464997	267.621614	713.108863	-458.440841	182.150466	689.745762	-452.221656	286.103775	687.446641	-436.721592	82.245054	618.885778	-440.898536	120.258112	622.783205	-364.551855	10.513823	628.847589	-393.869216	221.010720	423.652998	-404.243359	120.350571	473.838552	-464.143390	-220.129485	912.399829	-274.698337	-53.435402	79.190507	-475.143087	-53.479967	79.178082	-77.410487	
501	2.5050	632.510064	1434.454073	-107.260569	612.101480	1460.717097	-405.142517	562.256665	1541.877220	-255.442012	577.869653	1368.724005	-261.087431	553.537478	1161.639746	28.605473	682.661490	970.884092	-58.073213	539.234974	1197.690951	-565.501087	674.565313	972.877436	-507.217922	45.057045	1217.212510	-279.489575	207.832535	1237.649114	-406.530460	200.734977	1204.340000	-138.084895	239.974368	1178.094310	-378.666399	234.663453	1144.599602	-172.310102	89.756946	1248.322709	-232.067520	89.696004	1266.443923	-317.285006	123.302135	1072.570354	-133.491643	124.884083	1147.300092	-462.140290	171.141874	965.774710	-114.663774	215.858019	888.640877	-117.320793	214.745981	800.655720	-124.253508	250.110767	898.761597	-128.639396	267.832941	659.718671	-149.878339	238.918973	652.292649	-252.697308	222.617484	563.131805	-109.314080	226.967372	474.948783	-117.111350	190.905345	397.139369	-112.689494	252.515142	471.121519	-146.415136	170.447849	260.250251	-114.682322	176.736616	274.081691	-199.273211	95.146719	227.285318	-152.207168	390.149131	195.008339	-162.604053	291.732371	176.432546	-91.565325	218.976766	1049.150541	-483.855058	299.942857	1019.535156	-482.369436	320.063866	1044.172216	-461.253143	356.600602	949.005952	-489.558396	447.598389	830.624151	-461.225871	429.005008	820.431067	-350.790882	331.058492	776.589758	-474.540125	270.972109	715.169968	-458.484798	185.506650	691.730427	-452.386530	289.469950	689.435459	-436.871434	85.628257	620.774309	-441.014135	123.786822	624.775891	-364.159241	13.870162	630.891879	-393.875968	224.004356	425.255669	-404.306984	123.431750	475.680823	-464.122202	-220.142391	912.383408	-274.693561	-53.435834	79.181887	-475.147948	-53.498217	79.375557	-77.239701	
502	2.5100	631.928536	1437.164407	-107.309633	611.422290	1462.638115	-406.233858	561.614080	1544.332573	-256.421491	577.680733	1371.499373	-261.456326	553.963619	1163.097250	27.721395	682.644366	971.005680	-57.720571	539.287895	1198.064960	-564.917025	674.396530	973.009050	-506.948289	46.206388	1217.124546	-279.505423	208.925641	1238.476288	-406.696998	202.079270	1204.910095	-138.092679	241.575745	1179.124380	-378.762317	236.536608	1145.240534	-172.066933	90.951569	1248.275742	-232.243620	90.653445	1266.462000	-317.194929	124.763613	1072.478383	-133.892654	126.696179	1147.924849	-462.288992	171.673946	965.351434	-114.757800	215.626262	887.788804	-117.158916	213.687673	799.842503	-124.346514	250.087456	897.574882	-128.273108	266.228277	658.946493	-149.785848	237.426509	651.558792	-252.516348	220.995068	562.524576	-109.154585	225.278789	474.455038	-116.955201	189.154448	396.623838	-112.565282	250.733702	470.513546	-146.373163	168.506232	259.717905	-114.558091	174.863363	273.500639	-199.163938	93.032715	227.325504	-152.097233	387.670985	192.372606	-162.557391	289.118903	174.624094	-91.491814	221.416499	1050.340982	-483.983117	302.472435	1021.198104	-482.380674	322.412164	1045.816658	-461.161175	359.486867	950.935096	-489.632338	450.789563	832.874076	-461.435246	433.096295	822.816577	-349.961597	334.562618	778.742173	-474.564094	274.369789	717.243673	-458.620806	188.941877	693.699615	-452.469960	292.875437	691.473323	-436.973798	89.049203	622.722326	-441.151494	127.104856	626.620223	-364.300374	17.320935	632.902333	-393.973754	227.064934	426.834749	-404.283987	126.587582	477.445193	-464.149821	-220.142252	912.389182	-274.690613	-53.443600	79.188161	-475.155220	-53.454865	79.169902	-77.414323	
503	2.5150	631.412257	1439.854546	-107.253874	610.587561	1464.535109	-407.214131	561.050500	1546.594354	-257.418282	577.513741	1374.170380	-261.864096	554.399657	1164.551098	26.689035	682.626951	971.141933	-57.312010	539.314451	1198.578829	-564.276071	674.228092	973.212581	-506.692155	47.418440	1217.055195	-279.546349	210.015228	1239.259210	-406.848785	203.486591	1205.360828	-138.158024	243.178074	1180.070687	-378.741039	238.346369	1145.769125	-171.876321	92.033451	1248.016670	-232.137627	91.593974	1266.445614	-317.197180	126.219886	1072.316424	-134.197818	128.490173	1148.483929	-462.368525	172.226820	964.998576	-114.897790	215.451296	887.063256	-117.007082	212.802161	799.003706	-124.335867	250.079587	896.480825	-127.916122	264.746277	658.250776	-149.704712	235.943808	650.906782	-252.375186	219.491186	562.006293	-109.033246	223.609638	473.874576	-116.944286	187.419465	396.142295	-112.483964	249.013517	469.958642	-146.264228	166.554764	259.255629	-114.451122	172.846653	273.767334	-199.637399	90.846750	227.591471	-152.032237	385.160288	189.935152	-162.531307	286.466785	172.974130	-91.490631	223.701966	1051.576341	-484.111397	304.925682	1022.662595	-482.449046	324.744476	1047.352943	-461.188488	362.285798	952.742361	-489.665921	453.961264	835.029085	-461.555951	436.026405	824.578561	-350.267440	337.932408	780.738259	-474.614278	277.785452	719.201606	-458.651639	192.333871	695.684485	-452.533903	296.302099	693.442830	-437.135445	92.483743	624.510115	-441.230204	130.612263	628.353136	-364.424137	20.794525	635.132453	-394.235262	230.113257	428.413720	-404.411106	129.801269	479.171045	-464.195119	-220.125017	912.412088	-274.689180	-53.431070	79.199394	-475.153148	-53.484716	79.186564	-77.405073	
504	2.5200	630.852050	1442.428695	-107.358748	609.941669	1466.469260	-408.190605	560.499793	1548.780840	-258.472769	577.305760	1376.740577	-262.260364	554.739742	1166.004096	25.756176	682.560456	971.266007	-56.955825	539.276580	1199.173997	-563.506129	674.054908	973.482764	-506.450724	48.611793	1216.859277	-279.625346	211.137708	1240.029196	-407.030071	204.849973	1205.762324	-138.217051	244.763735	1181.003454	-378.818151	240.118132	1146.244342	-171.747630	93.105873	1247.829026	-232.159261	92.620810	1266.414327	-317.269617	127.685363	1072.107141	-134.618868	130.238452	1148.983413	-462.509678	172.835246	964.668810	-114.996437	215.373805	886.236680	-116.945702	211.916008	798.331573	-124.446113	250.129166	895.422208	-127.645281	263.268846	657.615152	-149.630593	234.388968	650.366682	-252.315626	218.100400	561.488796	-108.932488	222.017747	473.390026	-116.869232	185.704946	395.672777	-112.367827	247.352007	469.441907	-146.277588	164.571410	258.868196	-114.325686	171.122719	272.432896	-198.925323	88.660554	227.736000	-151.950586	382.617596	187.427444	-162.509183	283.788078	171.536406	-91.445661	225.914374	1052.583819	-484.237815	307.238133	1024.177791	-482.513597	326.926007	1048.955573	-461.210895	364.905119	954.455258	-489.754657	457.019484	836.986053	-460.841917	438.896679	826.336179	-350.620512	341.272643	782.745213	-474.634428	281.167525	721.174400	-458.744623	195.748072	697.591838	-452.593114	299.690518	695.367315	-437.206079	95.891972	626.274242	-441.361829	133.950608	630.109365	-364.458622	24.204062	636.890899	-394.104376	233.202124	429.826430	-404.354907	132.941939	480.929125	-464.223014	-220.138046	912.412576	-274.644558	-53.440454	79.220399	-475.148020	-53.459519	79.193048	-77.403292	
